inDegrees=no
num_controls=7
num_derivatives=13
num_iterations=121
num_multipliers=7
num_parameters=0
num_slacks=7
num_states=26
objective=5.578170
objective_accelerations=0.213768
objective_balance=0.050081
objective_effort=0.350539
objective_height=4.940315
objective_ligament=0.023467
solver_duration=1039.923874
status=Solve_Succeeded
success=true
DataType=double
version=3
OpenSimVersion=4.4-2022-07-23-0e9fedc
endheader
time	/jointset/ground_pelvis/pelvis_tilt/value	/jointset/ground_pelvis/pelvis_tx/value	/jointset/ground_pelvis/pelvis_ty/value	/jointset/hip_r/hip_flexion_r/value	/jointset/hip_r/hip_adduction_r/value	/jointset/hip_r/hip_rotation_r/value	/jointset/back/lumbar_extension/value	/jointset/patellofemoral_r/patellar_flexion_r/value	/jointset/knee_r/knee_flexion_r/value	/jointset/knee_r/knee_adduction_r/value	/jointset/knee_r/knee_rotation_r/value	/jointset/ankle_r/ankle_angle_r/value	/jointset/subtalar_r/subtalar_angle_r/value	/jointset/ground_pelvis/pelvis_tilt/speed	/jointset/ground_pelvis/pelvis_tx/speed	/jointset/ground_pelvis/pelvis_ty/speed	/jointset/hip_r/hip_flexion_r/speed	/jointset/hip_r/hip_adduction_r/speed	/jointset/hip_r/hip_rotation_r/speed	/jointset/back/lumbar_extension/speed	/jointset/patellofemoral_r/patellar_flexion_r/speed	/jointset/knee_r/knee_flexion_r/speed	/jointset/knee_r/knee_adduction_r/speed	/jointset/knee_r/knee_rotation_r/speed	/jointset/ankle_r/ankle_angle_r/speed	/jointset/subtalar_r/subtalar_angle_r/speed	/forceset/tau_hip_flexion_r	/forceset/tau_hip_adduction_r	/forceset/tau_hip_rotation_r	/forceset/tau_knee_flexion_r	/forceset/tau_ankle_angle_r	/forceset/tau_subtalar_angle_r	/forceset/tau_lumbar_extension	lambda_cid13_p0	lambda_cid14_p0	lambda_cid14_p1	lambda_cid14_p2	lambda_cid14_p3	lambda_cid14_p4	lambda_cid14_p5	/jointset/ground_pelvis/pelvis_tilt/accel	/jointset/ground_pelvis/pelvis_tx/accel	/jointset/ground_pelvis/pelvis_ty/accel	/jointset/hip_r/hip_flexion_r/accel	/jointset/hip_r/hip_adduction_r/accel	/jointset/hip_r/hip_rotation_r/accel	/jointset/back/lumbar_extension/accel	/jointset/patellofemoral_r/patellar_flexion_r/accel	/jointset/knee_r/knee_flexion_r/accel	/jointset/knee_r/knee_adduction_r/accel	/jointset/knee_r/knee_rotation_r/accel	/jointset/ankle_r/ankle_angle_r/accel	/jointset/subtalar_r/subtalar_angle_r/accel	gamma_cid13_p0	gamma_cid14_p0	gamma_cid14_p1	gamma_cid14_p2	gamma_cid14_p3	gamma_cid14_p4	gamma_cid14_p5
0.5	0.0008891104776626996	0.100465554157046	0.9009408600805799	0.4290959333009513	-0.2399007186654228	-0.1483267770055901	-0.2920192392558124	0.5327535472204131	0.5327535472203255	0.09353455617220928	0.1745097745060587	0.2633691480925477	0.04372067195715326	0.01322026887603604	0.006539900459906801	-0.1758742867984667	0.7028012644458032	-0.02956978906976353	0.2681817587190504	-0.6064449839890466	1.252561700780116	1.252561700780195	-0.1469693600267545	-6.459755604864759e-05	0.6060659584611227	0.1239768478829805	-0.007981218820022158	-0.01746215331906242	0.006213291120528187	-0.3055913912639356	0.01790452550986633	-0.02261346947779577	0.08858654444426406	-39.3424280395271	-37.55237075473401	-11.97665008546355	-2.678789841841948	10.13789662870269	-680.9408665914299	53.74766163487023	-0.09214946479647765	0.01910666947327916	-0.2090969024470778	-0.3692243484873025	0.01647805730851322	-0.2991814441769065	0.8481499577490901	-0.8233015669514842	-0.8233015669515006	0.3430249417478585	-0.02851805929750598	-0.4476069816297277	-0.02382871082727585	-7.305962299099668e-08	2.12875136053283e-09	9.595714858226576e-07	-2.770871858408914e-07	-9.806421553318717e-08	3.548038995393457e-08	7.070798170813861e-07
0.51	0.001016320099700499	0.100531948482434	0.8991719672024178	0.4361048837262354	-0.2401958680019424	-0.1456611749793345	-0.2980400605206532	0.5452364644190065	0.5452364644188754	0.0920822661185272	0.1745090113353062	0.2694066082497378	0.04495868032183405	0.01221743862824647	0.006742957294967057	-0.1778654290497925	0.6988862778272709	-0.02945436666150169	0.2649047083537863	-0.597636287956178	1.243843670549633	1.243843670549746	-0.143492869875515	-8.0902520418666e-05	0.6013495415003737	0.1236117395097338	-0.01113795595429603	-0.01549623677168712	0.006644735119964093	-0.307594801054237	0.01288658708816156	-0.02146640987745369	0.09182977512599809	-38.88379857434443	-39.18433278975113	-11.85764538995842	-2.591055883662541	10.68308325785333	-682.6092419510078	53.62074543827484	-0.1049838853668748	0.02148503059757195	-0.1882867387469432	-0.4180168205272695	0.009969471830977811	-0.3471361068629522	0.909676579593282	-0.9227495274810681	-0.9227495274760112	0.3494424252201794	0.01284570645305667	-0.4951561768936814	-0.0447022535084147	-7.030655895450284e-08	7.926074557439556e-10	9.172032742008724e-07	-2.803701296345593e-07	-9.401600005641045e-08	3.673685049000104e-08	6.934449633522867e-07
0.52	0.001133374603152082	0.1006004893441875	0.8973843301312886	0.4430716080849496	-0.2404896840865169	-0.1430293773115714	-0.3039703053944555	0.5576268621600453	0.5576268621598643	0.09066463724118465	0.1745082915990755	0.2753946048125999	0.0461926675321967	0.01118924515655483	0.006969207732987248	-0.1796231253918658	0.6943560511290745	-0.0293031386834285	0.2614208870220694	-0.5883297057818073	1.234057809263779	1.234057809263926	-0.1400371247879643	-5.591062638774606e-05	0.5961732395957798	0.1231726170190884	-0.01429469308851261	-0.01353032022426386	0.007076179118769051	-0.309598210844463	0.007868648666487572	-0.020319350277027	0.09507300580776262	-38.40211556470067	-40.82537081266818	-11.73655287742944	-2.507854942214425	11.23475258084216	-684.4265787696894	53.53378805416351	-0.09722210957682753	0.02374539006515326	-0.1624077205965653	-0.4922723644201094	0.02363917127072557	-0.3405356374674607	0.947727186049508	-1.036867778025786	-1.036867778025798	0.3388759290101521	-0.02025868761730255	-0.5395839703987633	-0.03863153430706915	-6.605493779050169e-08	2.502678839655421e-09	8.779488918084785e-07	-2.624705746434633e-07	-9.140968056232765e-08	3.842644960953368e-08	6.65700444485706e-07
0.53	0.001240016836680426	0.1006713862342349	0.8955803046916515	0.4499900213398499	-0.2407818011268539	-0.1404332587371616	-0.3098050880403576	0.5699141126751139	0.5699141126749853	0.08928146665745619	0.1745078583960211	0.2813285498586246	0.04742189055427893	0.01013472181448673	0.007212050381816689	-0.1811408618729735	0.6892288230891425	-0.0291163408065276	0.2577826400845727	-0.5785528092883861	1.223218141621333	1.223218141621392	-0.1365942798463628	-3.320913692920231e-05	0.5905388148720307	0.1226553513043517	-0.0173339226340642	-0.01162253302171789	0.007476837412744503	-0.3116419150069723	0.003014540258700813	-0.01926974977634005	0.09821678074237719	-37.89957299739197	-42.41579719501305	-11.65386578404425	-2.412887572678669	11.77841668961325	-686.1853134655723	53.39086808687323	-0.1102407039432515	0.02481770957674691	-0.140283649711946	-0.5376138937012859	0.01682419927169661	-0.3785676433660731	1.003772997674008	-1.133626312223615	-1.133626312236875	0.3475005092641843	0.01313251354768988	-0.5869309232890229	-0.06066522033633771	-6.223495188738281e-08	3.768337856569706e-09	8.403079024942673e-07	-2.477153090447086e-07	-8.871737979071912e-08	3.981562882247455e-08	6.402967177450459e-07
0.54	0.001335979185315023	0.1007447643522274	0.8937623364796351	0.4568542291403698	-0.2410719253677346	-0.1378741423164277	-0.3155398812979885	0.5820877445027908	0.5820877445027139	0.08793282686970956	0.1745075717970705	0.2872038388174263	0.04864546269315904	0.009053268175532678	0.007465453322007798	-0.1824116798677414	0.6835149602523334	-0.02890457879476265	0.2540204562880744	-0.5683318281275416	1.211334071784103	1.211334071784075	-0.1331309656036091	-2.658979465671604e-05	0.5844420221512421	0.1220424403784423	-0.02037315217965611	-0.009714745819156672	0.007877495706452922	-0.3136856191694677	-0.001839568149076372	-0.01822014927562449	0.1013605556769522	-37.37839765608404	-44.01550057266728	-11.56936383058558	-2.322137991650022	12.32958530663782	-688.094793157976	53.28579182329489	-0.1026081689539353	0.02585744833735421	-0.1130240233285968	-0.6095993237954929	0.02863199824350172	-0.365323009267801	1.036544119534186	-1.245748216982498	-1.245748216982478	0.3429697892406388	-0.02347511705448559	-0.6320575698067945	-0.05776057654167378	-5.88925198899209e-08	4.542306595104123e-09	8.044519438197475e-07	-2.36438831709821e-07	-8.592995079716722e-08	4.08724285642926e-08	6.174828035692343e-07
0.55	0.001421004463026602	0.1008207335295267	0.8919329111490044	0.463658403079901	-0.2413597844707386	-0.1353532611334504	-0.3211702939721841	0.594137411797201	0.594137411797225	0.08661882385346729	0.1745072606183452	0.2930159171945274	0.04986246329253401	0.007948686097307416	0.007730811855341137	-0.1834305617211595	0.6772240278364848	-0.02866291683012811	0.250129295902509	-0.5576814158586433	1.198434053500143	1.198434053500135	-0.1296736464517431	-3.182402034125341e-05	0.5779024816564512	0.1213424800684768	-0.02328925578269675	-0.007964795713440571	0.008245018652271854	-0.3158147135165116	-0.006403461662363303	-0.01721870362843528	0.1044078297226366	-36.84078934607355	-45.51875756005237	-11.48854559968244	-2.231192685888586	12.81040617622499	-689.9190200496727	53.19482857403146	-0.1148496399804304	0.02722263112184833	-0.08988829599844243	-0.653209499526157	0.02261210174965692	-0.4050492059852551	1.089683408662687	-1.336917259521512	-1.336917259518477	0.3466073584301047	0.01150037670669453	-0.6755927049683349	-0.0782980753406749	-5.543240421921266e-08	5.41109202933073e-09	7.676131646741207e-07	-2.23590989545224e-07	-8.303828313049423e-08	4.168675661642837e-08	5.92847530956124e-07
